<svg xmlns="http://www.w3.org/2000/svg" viewBox="0 0 118.1 118.1">
  <rect fill="#1a73e8" width="118.1" height="118.1" rx="13.8" ry="13.8"/>
  <path fill="#fff" d="M77.46,23.42l-2.58,11.05c6.82.91,11.36,9.09,5.56,16.44-1.21,1.54-3.09,2.42-5.05,2.42h-8.17s3.54-15.14,3.54-15.14h-11.61l-3.54,15.14h-9.48c-11.46,0-22.44,9.32-22.44,20.79s10.99,20.79,22.44,20.79h11.39l7.06-30.26h10.96c6.14,0,11.95-3.09,15.15-8.33,9.11-14.89.19-30.36-13.24-32.89ZM48.55,83.6h-4.19c-1.95,0-3.81-.86-5.02-2.39-6.18-7.82-.69-16.57,6.8-16.57h6.84l-4.43,18.96Z"/>
  <polygon fill="#fff" points="71.76 34.38 74.28 23.19 62.54 23.19 60.02 34.38 60.04 34.38 71.76 34.38"/>
</svg>